# xmcd CD database file
#
# Track frame offsets:
#	150
#	13548
#	24080
#	39686
#	50982
#	63284
#	77867
#	91307
#	106502
#	119318
#	131007
#	143131
#	153578
#	174247
#
# Disc length: 2506 seconds
#
# Revision: 0
# Processed by: cddbd v1.5.1PL2 Copyright (c) Steve Scherf et al.
# Submitted via: CDex 1.51
#
DISCID=ae09c80e
DTITLE=Götz Bergmann and his Gentlemen - Let there be Love
DYEAR=2003
DGENRE=Jazz
TTITLE0=This can't be Love
TTITLE1=Carnegie Horizons
TTITLE2=Hallo, kleines Fräulein
TTITLE3=A-B-C Lied
TTITLE4=It's only a Papermoon
TTITLE5=Long ago
TTITLE6=La Sorcière
TTITLE7=Let there be Love
TTITLE8=Buddy Stomp
TTITLE9=Das Lehn-Lied
TTITLE10=Straighten up and Fly Right
TTITLE11=My Gentleman Friend
TTITLE12=Sweet Lorraine
TTITLE13=Dream a Little Dream of me
EXTD=YEAR: 2003
EXTT0=
EXTT1=
EXTT2=
EXTT3=
EXTT4=
EXTT5=
EXTT6=
EXTT7=
EXTT8=
EXTT9=
EXTT10=
EXTT11=
EXTT12=
EXTT13=
PLAYORDER=
